<svg width="33" height="22" viewBox="0 0 33 22" fill="none" xmlns="http://www.w3.org/2000/svg">
<path d="M19.7839 22C19.2594 22 18.8097 21.81 18.435 21.4301C18.1353 21.0501 17.9854 20.5941 17.9854 20.0622C17.9854 19.4542 18.0978 18.8463 18.3226 18.2383L24.2803 2.62176C24.655 1.86183 25.0297 1.25389 25.4044 0.797931C25.854 0.265977 26.5659 0 27.5401 0H31.2496C31.8491 0 32.2988 0.227979 32.5985 0.683936C32.9732 1.1399 33.0856 1.74784 32.9358 2.50777L30.4628 18.6943C30.3878 19.6062 30.0881 20.4041 29.5635 21.0881C29.0389 21.696 28.2521 22 27.2029 22H19.7839ZM1.79854 22C1.27397 22 0.824331 21.81 0.449635 21.4301C0.149878 21.0501 0 20.5941 0 20.0622C0 19.4542 0.112409 18.8463 0.337226 18.2383L6.29489 2.62176C6.66959 1.86183 7.08175 1.25389 7.53139 0.797931C7.98102 0.265977 8.65547 0 9.55474 0H13.2642C13.8637 0 14.3134 0.227979 14.6131 0.683936C14.9878 1.1399 15.1002 1.74784 14.9504 2.50777L12.4774 18.6943C12.4024 19.6062 12.1027 20.4041 11.5781 21.0881C11.0535 21.696 10.3041 22 9.32993 22H1.79854Z" fill="#FF6E42"/>
</svg>
