<svg width="17" height="16" viewBox="0 0 17 16" fill="none" xmlns="http://www.w3.org/2000/svg">
<path d="M12 6C10.8125 6 9.81875 6.82812 9.56563 7.9375C8.81875 7.82812 7.75312 7.53437 6.94375 6.7625C6.425 6.26562 6.07188 5.62188 5.89062 4.8375C6.83125 4.47813 7.5 3.56562 7.5 2.5C7.5 1.11875 6.38125 0 5 0C3.61875 0 2.5 1.11875 2.5 2.5C2.5 3.61875 3.23438 4.56563 4.25 4.88438V11.1125C3.23438 11.4344 2.5 12.3813 2.5 13.5C2.5 14.8813 3.61875 16 5 16C6.38125 16 7.5 14.8813 7.5 13.5C7.5 12.3813 6.76562 11.4344 5.75 11.1156V7.69063C5.8 7.74375 5.85313 7.79688 5.90625 7.84688C7.13438 9.01875 8.73125 9.36562 9.69375 9.46562C10.0719 10.3687 10.9625 11.0031 12 11.0031C13.3813 11.0031 14.5 9.88438 14.5 8.50313C14.5 7.12188 13.3813 6 12 6ZM5 1.5C5.55 1.5 6 1.95 6 2.5C6 3.05 5.55 3.5 5 3.5C4.45 3.5 4 3.05 4 2.5C4 1.95 4.45 1.5 5 1.5ZM5 14.5C4.45 14.5 4 14.05 4 13.5C4 12.95 4.45 12.5 5 12.5C5.55 12.5 6 12.95 6 13.5C6 14.05 5.55 14.5 5 14.5ZM12 9.5C11.45 9.5 11 9.05 11 8.5C11 7.95 11.45 7.5 12 7.5C12.55 7.5 13 7.95 13 8.5C13 9.05 12.55 9.5 12 9.5Z" fill="black"/>
</svg>
